# xmcd
#
# Track frame offsets: 
#        150
#        24132
#        39714
#        54919
#        78672
#        93633
#        99662
#        115794
#        130053
#        143642
#        159314
#        171973
#        183018
#        197014
#        206702
#        221323
#
# Disc length: 3099 seconds
#
# Revision: 3
# Processed by: cddbd v1.5.2PL0 Copyright (c) Steve Scherf et al.
# Submitted via: ExactAudioCopyFreeDBPlugin 1.0
#
DISCID=d00c1910
DTITLE=Steve James - Fast Texas
DYEAR=2003
DGENRE=Blues
TTITLE0=Fast Texas
TTITLE1=Texas Tommy
TTITLE2=Sukey
TTITLE3=Jack O' Diamonds
TTITLE4=Freestone County Blues
TTITLE5=Where Shall I Be?
TTITLE6=Day's Lonesome
TTITLE7=Cocaine Blues
TTITLE8=Chicken Stuff
TTITLE9=Blues Come To Stay
TTITLE10=Fisherman's Reel
TTITLE11=4 or 5 Times
TTITLE12=Rain Done Fell On Me
TTITLE13=Waiting For A Train
TTITLE14=Bye Bye Baby Blues
TTITLE15=Rain Done Fell On Me (Reprise)
EXTD=
EXTT0=
EXTT1=
EXTT2=
EXTT3=
EXTT4=
EXTT5=
EXTT6=
EXTT7=
EXTT8=
EXTT9=
EXTT10=
EXTT11=
EXTT12=
EXTT13=
EXTT14=
EXTT15=
PLAYORDER=
